<?xml version="1.0" standalone="no"?>
<!DOCTYPE svg PUBLIC "-//W3C//DTD SVG 20010904//EN"
 "http://www.w3.org/TR/2001/REC-SVG-20010904/DTD/svg10.dtd">
<svg version="1.0" xmlns="http://www.w3.org/2000/svg"
 width="981.000000pt" height="1280.000000pt" viewBox="0 0 981.000000 1280.000000"
 preserveAspectRatio="xMidYMid meet">
<g transform="translate(0.000000,1280.000000) scale(0.100000,-0.100000)"
fill="#000000" stroke="none">
<path d="M6838 12780 c-294 -49 -506 -149 -697 -326 -237 -220 -363 -507 -363
-824 0 -430 241 -814 640 -1018 737 -377 1649 37 1798 816 18 95 18 309 0 404
-44 227 -146 418 -316 589 -198 200 -422 309 -737 359 -146 24 -185 24 -325 0z"/>
<path d="M6970 10300 c-492 -4 -1723 -13 -2735 -20 -1012 -6 -1927 -15 -2034
-18 l-193 -7 1993 -634 c1097 -348 2008 -639 2024 -646 25 -10 46 -42 128
-198 207 -392 391 -818 476 -1105 64 -217 84 -327 85 -472 0 -124 -2 -141 -28
-205 -27 -69 -35 -118 -221 -1250 -42 -256 -144 -875 -380 -2310 -59 -352
-205 -1236 -326 -1964 -121 -728 -218 -1334 -215 -1347 4 -15 16 -26 33 -30
57 -15 71 1 217 231 186 297 1118 1795 1731 2785 274 443 506 814 516 824 18
19 18 19 28 -5 10 -23 369 -1488 751 -3064 144 -595 186 -754 202 -768 23 -20
85 -23 122 -6 20 10 26 21 31 63 23 202 560 6635 553 6641 -2 2 -684 35 -1516
73 -831 38 -1515 72 -1519 75 -3 4 -4 9 -1 12 3 3 187 19 409 35 2717 200
2671 197 2686 216 48 64 -8 321 -142 653 -163 405 -324 727 -900 1796 -204
378 -247 463 -291 570 l-33 80 -278 1 c-153 0 -681 -3 -1173 -6z"/>
<path d="M2013 8923 c-53 -159 -180 -426 -279 -593 -212 -358 -518 -645 -822
-770 -42 -18 -92 -38 -110 -46 l-33 -13 27 -53 c103 -203 280 -365 496 -453
302 -123 649 -141 1327 -70 688 73 851 72 1003 -3 l58 -29 -6 86 c-7 104 11
195 58 285 45 86 204 241 348 341 326 225 390 273 486 369 161 161 215 279
215 475 0 58 -5 109 -10 114 -6 6 -43 4 -103 -7 -209 -36 -277 -41 -578 -41
-306 0 -373 5 -670 46 -431 60 -995 212 -1319 355 -64 29 -80 30 -88 7z"/>
<path d="M218 6300 c-84 -10 -168 -48 -196 -88 -29 -41 -28 -51 14 -100 26
-31 49 -46 89 -57 47 -14 54 -19 59 -48 3 -18 46 -297 96 -622 50 -324 167
-1083 260 -1685 93 -602 257 -1671 365 -2375 107 -704 198 -1290 200 -1302 l5
-23 1590 0 c978 0 1590 4 1590 9 0 5 72 673 160 1483 227 2096 392 3638 440
4108 23 223 45 415 50 428 5 12 18 22 28 22 48 0 128 34 164 70 68 68 43 130
-66 168 -48 16 -195 17 -2416 18 -1301 1 -2395 -2 -2432 -6z"/>
</g>
</svg>
